<?xml version="1.0" standalone="no"?>
<!DOCTYPE svg PUBLIC "-//W3C//DTD SVG 20010904//EN"
 "http://www.w3.org/TR/2001/REC-SVG-20010904/DTD/svg10.dtd">
<svg version="1.0" xmlns="http://www.w3.org/2000/svg"
 width="742.000000pt" height="742.000000pt" viewBox="0 0 742.000000 742.000000"
 preserveAspectRatio="xMidYMid meet">
<metadata>
Created by potrace 1.14, written by Peter Selinger 2001-2017
</metadata>
<g transform="translate(0.000000,742.000000) scale(0.100000,-0.100000)"
fill="#000000" stroke="none">
<path d="M3530 5704 c-293 -37 -571 -147 -810 -322 -104 -76 -282 -259 -362
-372 -245 -345 -349 -783 -289 -1208 70 -489 249 -879 610 -1327 111 -138 351
-384 496 -507 241 -204 321 -245 505 -255 194 -10 314 40 535 225 512 428 886
941 1043 1432 69 215 112 457 112 627 0 97 -30 324 -56 427 -126 499 -467 924
-906 1130 -225 106 -399 146 -658 151 -102 2 -201 1 -220 -1z m-794 -1945
c415 -107 714 -466 741 -890 5 -82 3 -101 -12 -126 -28 -48 -63 -63 -149 -63
-270 0 -564 152 -739 383 -125 164 -196 362 -200 551 -2 103 12 137 68 163 40
18 186 10 291 -18z m2244 13 c57 -28 72 -70 66 -178 -31 -483 -430 -885 -905
-911 -118 -7 -153 4 -186 59 -15 26 -17 45 -12 127 27 401 287 740 668 868
156 52 306 67 369 35z"/>
</g>
</svg>
